<?xml version="1.0" encoding="UTF-8" standalone="no"?>
<!-- Created with Inkscape (http://www.inkscape.org/) -->

<svg
   width="174.17749mm"
   height="157.0233mm"
   viewBox="0 0 174.17749 157.0233"
   version="1.1"
   id="svg1371"
   inkscape:version="1.1 (c4e8f9ed74, 2021-05-24)"
   sodipodi:docname="copepod.svg"
   xmlns:inkscape="http://www.inkscape.org/namespaces/inkscape"
   xmlns:sodipodi="http://sodipodi.sourceforge.net/DTD/sodipodi-0.dtd"
   xmlns="http://www.w3.org/2000/svg"
   xmlns:svg="http://www.w3.org/2000/svg">
  <sodipodi:namedview
     id="namedview1373"
     pagecolor="#ffffff"
     bordercolor="#666666"
     borderopacity="1.0"
     inkscape:pageshadow="2"
     inkscape:pageopacity="0.0"
     inkscape:pagecheckerboard="0"
     inkscape:document-units="mm"
     showgrid="false"
     inkscape:zoom="0.34715934"
     inkscape:cx="15.842869"
     inkscape:cy="-142.58582"
     inkscape:window-width="1916"
     inkscape:window-height="1037"
     inkscape:window-x="0"
     inkscape:window-y="20"
     inkscape:window-maximized="1"
     inkscape:current-layer="g2061" />
  <defs
     id="defs1368" />
  <g
     inkscape:label="Layer 1"
     inkscape:groupmode="layer"
     id="layer1"
     transform="translate(-24.783595,-48.687674)">
    <g
       id="g5008"
       transform="matrix(0.76889855,-0.50720653,-0.50792302,-0.76470291,131.86099,365.6286)"
       style="stroke-width:0.383635">
      <g
         id="g2061"
         transform="translate(-0.77467139,-18.327771)">
        <path
           style="fill:#ff7d7d;fill-opacity:1;stroke:none;stroke-width:0.287727px;stroke-linecap:round;stroke-linejoin:round;stroke-opacity:1"
           d="m 135.77486,266.02132 c 0,0 0.4901,-3.63521 1.91826,-4.24351 0.99356,-0.42319 2.50334,0.15385 3.05333,1.08323 0.57455,0.97088 -0.0271,2.33737 -0.54312,3.34058 -0.40967,0.79644 -1.90675,1.89307 -1.90675,1.89307"
           id="path4896"
           sodipodi:nodetypes="caaac" />
        <path
           style="fill:#ff7d7d;fill-opacity:1;stroke:none;stroke-width:0.287727px;stroke-linecap:round;stroke-linejoin:round;stroke-opacity:1"
           d="m 119.42447,290.33883 c 0,0 -2.06147,1.97551 -2.53265,3.27165 -0.39538,1.0876 -1.00757,2.7102 -0.13394,3.46912 0.9926,0.86227 2.73557,-0.0572 3.88154,-0.70185 1.73023,-0.97327 3.94885,-4.45817 3.94885,-4.45817"
           id="path4898"
           sodipodi:nodetypes="caaac" />
        <path
           style="fill:#80caff;fill-opacity:1;stroke:none;stroke-width:0.287727px;stroke-linecap:butt;stroke-linejoin:miter;stroke-opacity:1"
           d="m 137.0774,295.71597 c 0,0 0.6716,8.65411 -0.82735,12.58013 -6.66167,17.44806 -22.5638,29.78464 -34.51911,44.13327 -1.823193,2.18818 -3.844425,4.20604 -5.669748,6.39244 -1.710056,2.04833 -7.610721,6.38909 -4.944032,6.29572 4.669632,-0.1635 11.62562,-10.68729 17.05822,-15.43879 12.73348,-11.13705 24.30692,-24.25095 32.24576,-39.18916 1.46168,-2.75039 2.16161,-5.88308 2.65822,-8.9579 0.45062,-2.79008 0.26944,-8.47442 0.26944,-8.47442"
           id="path4900"
           sodipodi:nodetypes="caaassaac" />
        <path
           style="fill:#80caff;fill-opacity:1;stroke:none;stroke-width:0.287727px;stroke-linecap:butt;stroke-linejoin:miter;stroke-opacity:1"
           d="m 147.12027,286.37997 c 0,0 3.9065,0.76098 5.69741,0.12761 5.66382,-2.00305 9.91755,-7.02216 13.75837,-11.6416 4.91721,-5.91404 7.27163,-13.57418 11.43889,-20.03861 3.79635,-5.88906 8.7492,-11.00202 12.32424,-17.028 4.82418,-8.13149 10.09309,-16.8182 12.66391,-25.50658 0.13431,-0.45392 -0.72475,-0.7838 -1.19768,-0.76313 -0.88712,0.0388 -1.78337,0.79755 -2.11315,1.622 -4.23332,10.58349 -11.31377,21.97174 -18.3784,32.14141 -4.60812,6.63347 -10.24293,12.49809 -15.08253,18.96462 -3.53115,4.71822 -5.16843,11.34774 -10.17299,14.45982 -2.95053,1.83478 -10.29856,1.60875 -10.29856,1.60875"
           id="path4902"
           sodipodi:nodetypes="caaassassaac" />
        <path
           style="fill:#80caff;fill-opacity:1;stroke:none;stroke-width:0.287727px;stroke-linecap:butt;stroke-linejoin:miter;stroke-opacity:1"
           d="m 45.992676,226.57927 c -1.464016,1.82756 0.834933,4.89078 2.454225,6.58229 3.651696,3.81455 10.336222,3.04531 14.588398,6.17655 2.510616,1.84878 3.461499,5.38854 6.038929,7.14297 1.737929,1.18299 3.886007,2.26572 5.974171,2.02191 1.284458,-0.14997 2.544922,-0.99947 3.289427,-2.05684 1.296075,-1.84073 2.138489,-4.45793 1.440669,-6.59829 -0.824335,-2.52841 -3.749755,-3.82825 -5.968995,-5.29364 -2.821025,-1.86276 -6.258826,-2.6139 -9.168398,-4.33507 -4.401133,-2.60351 -7.313784,-8.85667 -12.425396,-8.99687 -1.408554,-0.0386 -3.558196,0.87869 -3.55468,2.28777 0.0071,2.86351 5.011521,2.82341 7.246891,4.61307 2.07099,1.65805 7.228543,3.49206 5.639233,5.61626 -2.7848,3.72204 -7.815645,-5.24377 -12.229487,-6.7021 -1.062313,-0.35099 -2.625508,-1.33118 -3.324987,-0.45801 z"
           id="path4904"
           sodipodi:nodetypes="aaaaaaaaaaaaaaa" />
        <path
           style="fill:#ff7d7d;fill-opacity:1;stroke:none;stroke-width:0.287727px;stroke-linecap:round;stroke-linejoin:round;stroke-opacity:1"
           d="m 69.740919,249.82974 c -1.830059,8.98019 10.084474,15.63982 17.118099,21.51529 12.716364,10.62248 27.693532,19.58364 43.785972,23.53033 3.90588,0.95792 8.4349,1.58691 12.064,-0.14604 2.62468,-1.25332 4.54591,-3.99564 5.56704,-6.71907 0.61376,-1.63693 0.68103,-3.58252 0.13393,-5.24291 -2.76843,-8.40183 -9.74015,-15.01325 -16.31603,-20.93041 -10.7229,-9.64878 -23.38465,-17.4145 -36.738618,-22.86896 -4.732013,-1.9328 -10.42289,-5.66446 -14.969107,-3.32789 -3.527104,1.81279 -1.991513,8.01318 -4.660646,10.94616 -1.527182,1.67815 -5.531552,1.02017 -5.98464,3.2435 z"
           id="path4906"
           sodipodi:nodetypes="aaaaaaaaaaa" />
        <circle
           style="fill:#80caff;fill-opacity:1;stroke:none;stroke-width:0.287727;stroke-linecap:round;stroke-linejoin:round;stroke-miterlimit:4;stroke-dasharray:0.575449, 1.1509;stroke-dashoffset:0;stroke-opacity:1"
           id="circle4908"
           cx="142.42548"
           cy="-288.40836"
           r="2.5191007"
           transform="scale(1,-1)" />
        <g
           id="g5006"
           style="stroke:#80caff;stroke-width:1.08747;stroke-miterlimit:4;stroke-dasharray:none;stroke-opacity:1">
          <g
             id="g4920"
             style="stroke:#80caff;stroke-width:1.08747;stroke-miterlimit:4;stroke-dasharray:none;stroke-opacity:1">
            <path
               style="fill:none;stroke:#80caff;stroke-width:1.08747;stroke-linecap:round;stroke-linejoin:round;stroke-miterlimit:4;stroke-dasharray:none;stroke-opacity:1"
               d="m 138.41264,261.7116 -0.57462,-8.30902"
               id="path4910"
               sodipodi:nodetypes="cc" />
            <path
               style="fill:none;stroke:#80caff;stroke-width:1.08747;stroke-linecap:round;stroke-linejoin:round;stroke-miterlimit:4;stroke-dasharray:none;stroke-opacity:1"
               d="m 138.41264,261.7116 c 0,0 1.00323,-7.44065 1.14254,-11.18619 0.066,-1.77545 -0.14619,-5.32802 -0.14619,-5.32802"
               id="path4912"
               sodipodi:nodetypes="cac" />
            <path
               style="fill:none;stroke:#80caff;stroke-width:1.08747;stroke-linecap:round;stroke-linejoin:round;stroke-miterlimit:4;stroke-dasharray:none;stroke-opacity:1"
               d="m 139.75213,251.48333 c 0,0 1.46982,-3.52151 2.28433,-5.24615 0.65137,-1.37921 2.07959,-4.076 2.07959,-4.076"
               id="path4914"
               sodipodi:nodetypes="cac" />
            <path
               style="fill:none;stroke:#80caff;stroke-width:1.08747;stroke-linecap:round;stroke-linejoin:round;stroke-miterlimit:4;stroke-dasharray:none;stroke-opacity:1"
               d="m 139.13413,258.40694 c 0,0 2.22492,-4.91761 3.39537,-7.34906 1.01052,-2.09921 1.83629,-4.31189 3.13095,-6.24883 0.34232,-0.51214 1.2101,-1.39674 1.2101,-1.39674"
               id="path4916"
               sodipodi:nodetypes="caac" />
            <path
               style="fill:none;stroke:#80caff;stroke-width:1.08747;stroke-linecap:round;stroke-linejoin:round;stroke-miterlimit:4;stroke-dasharray:none;stroke-opacity:1"
               d="m 145.88368,250.41976 c 0,0 -3.43368,3.78281 -4.62283,6.01429 -0.94189,1.76749 -1.91234,5.69593 -1.91234,5.69593"
               id="path4918"
               sodipodi:nodetypes="cac" />
          </g>
          <g
             id="g4932"
             transform="rotate(-156.44903,131.72587,281.53447)"
             style="stroke:#80caff;stroke-width:1.08747;stroke-miterlimit:4;stroke-dasharray:none;stroke-opacity:1">
            <path
               style="fill:none;stroke:#80caff;stroke-width:1.08747;stroke-linecap:round;stroke-linejoin:round;stroke-miterlimit:4;stroke-dasharray:none;stroke-opacity:1"
               d="m 138.41264,261.7116 -0.57462,-8.30902"
               id="path4922"
               sodipodi:nodetypes="cc" />
            <path
               style="fill:none;stroke:#80caff;stroke-width:1.08747;stroke-linecap:round;stroke-linejoin:round;stroke-miterlimit:4;stroke-dasharray:none;stroke-opacity:1"
               d="m 138.41264,261.7116 c 0,0 1.00323,-7.44065 1.14254,-11.18619 0.066,-1.77545 -0.14619,-5.32802 -0.14619,-5.32802"
               id="path4924"
               sodipodi:nodetypes="cac" />
            <path
               style="fill:none;stroke:#80caff;stroke-width:1.08747;stroke-linecap:round;stroke-linejoin:round;stroke-miterlimit:4;stroke-dasharray:none;stroke-opacity:1"
               d="m 139.75213,251.48333 c 0,0 1.46982,-3.52151 2.28433,-5.24615 0.65137,-1.37921 2.07959,-4.076 2.07959,-4.076"
               id="path4926"
               sodipodi:nodetypes="cac" />
            <path
               style="fill:none;stroke:#80caff;stroke-width:1.08747;stroke-linecap:round;stroke-linejoin:round;stroke-miterlimit:4;stroke-dasharray:none;stroke-opacity:1"
               d="m 139.13413,258.40694 c 0,0 2.22492,-4.91761 3.39537,-7.34906 1.01052,-2.09921 1.83629,-4.31189 3.13095,-6.24883 0.34232,-0.51214 1.2101,-1.39674 1.2101,-1.39674"
               id="path4928"
               sodipodi:nodetypes="caac" />
            <path
               style="fill:none;stroke:#80caff;stroke-width:1.08747;stroke-linecap:round;stroke-linejoin:round;stroke-miterlimit:4;stroke-dasharray:none;stroke-opacity:1"
               d="m 145.88368,250.41976 c 0,0 -3.43368,3.78281 -4.62283,6.01429 -0.94189,1.76749 -1.91234,5.69593 -1.91234,5.69593"
               id="path4930"
               sodipodi:nodetypes="cac" />
          </g>
          <g
             id="g4948"
             style="stroke:#80caff;stroke-width:1.08747;stroke-miterlimit:4;stroke-dasharray:none;stroke-opacity:1">
            <path
               style="fill:none;stroke:#80caff;stroke-width:1.08747;stroke-linecap:round;stroke-linejoin:round;stroke-miterlimit:4;stroke-dasharray:none;stroke-opacity:1"
               d="M 49.441378,222.44926 C 44.1416,220.6926 39.345342,217.25071 34.605819,213.61893"
               id="path4934"
               sodipodi:nodetypes="cc" />
            <path
               style="fill:none;stroke:#80caff;stroke-width:1.08747;stroke-linecap:round;stroke-linejoin:round;stroke-miterlimit:4;stroke-dasharray:none;stroke-opacity:1"
               d="M 50.299399,222.20455 C 44.54443,218.15117 39.877136,212.44771 35.126006,206.87143"
               id="path4936"
               sodipodi:nodetypes="cc" />
            <path
               style="fill:none;stroke:#80caff;stroke-width:1.08747;stroke-linecap:round;stroke-linejoin:round;stroke-miterlimit:4;stroke-dasharray:none;stroke-opacity:1"
               d="M 51.258116,221.21243 C 48.331062,214.99592 43.913143,208.77941 39.282514,202.5629"
               id="path4938"
               sodipodi:nodetypes="cc" />
            <path
               style="fill:none;stroke:#80caff;stroke-width:1.08747;stroke-linecap:round;stroke-linejoin:round;stroke-miterlimit:4;stroke-dasharray:none;stroke-opacity:1"
               d="m 52.526352,221.29461 c -1.312334,-5.75197 -2.853416,-11.46179 -6.239054,-16.83175"
               id="path4940"
               sodipodi:nodetypes="cc" />
            <path
               style="fill:none;stroke:#80caff;stroke-width:1.08747;stroke-linecap:round;stroke-linejoin:round;stroke-miterlimit:4;stroke-dasharray:none;stroke-opacity:1"
               d="m 45.992676,226.57927 c -6.11084,-4.32959 -12.757014,-7.53147 -19.64793,-10.21779"
               id="path4942"
               sodipodi:nodetypes="cc" />
            <path
               style="fill:none;stroke:#80caff;stroke-width:1.08747;stroke-linecap:round;stroke-linejoin:round;stroke-miterlimit:4;stroke-dasharray:none;stroke-opacity:1"
               d="M 45.613653,228.38192 25.744966,223.97543"
               id="path4944" />
            <path
               style="fill:none;stroke:#80caff;stroke-width:1.08747;stroke-linecap:round;stroke-linejoin:round;stroke-miterlimit:4;stroke-dasharray:none;stroke-opacity:1"
               d="m 29.920241,229.81668 c 5.747683,0.83471 11.319059,1.29692 16.681323,1.31731"
               id="path4946"
               sodipodi:nodetypes="cc" />
          </g>
          <g
             id="g4970"
             style="stroke:#80caff;stroke-width:1.08747;stroke-miterlimit:4;stroke-dasharray:none;stroke-opacity:1">
            <path
               style="fill:none;stroke:#80caff;stroke-width:1.08747;stroke-linecap:round;stroke-linejoin:round;stroke-miterlimit:4;stroke-dasharray:none;stroke-opacity:1"
               d="m 153.53708,285.19801 c 0,0 3.2716,1.02643 4.89237,0.72484 2.37421,-0.44179 6.30505,-3.56858 6.30505,-3.56858"
               id="path4950"
               sodipodi:nodetypes="cac" />
            <path
               style="fill:none;stroke:#80caff;stroke-width:1.08747;stroke-linecap:round;stroke-linejoin:round;stroke-miterlimit:4;stroke-dasharray:none;stroke-opacity:1"
               d="m 162.5389,278.33187 c 0,0 3.70035,0.5197 5.42121,-0.0319 2.03117,-0.65106 5.2283,-3.68924 5.2283,-3.68924"
               id="path4952"
               sodipodi:nodetypes="cac" />
            <path
               style="fill:none;stroke:#80caff;stroke-width:1.08747;stroke-linecap:round;stroke-linejoin:round;stroke-miterlimit:4;stroke-dasharray:none;stroke-opacity:1"
               d="m 170.02747,268.3372 c 0,0 2.95502,1.10704 4.50595,1.18042 1.86123,0.0881 5.51705,-0.89973 5.51705,-0.89973"
               id="path4954"
               sodipodi:nodetypes="cac" />
            <path
               style="fill:none;stroke:#80caff;stroke-width:1.08747;stroke-linecap:round;stroke-linejoin:round;stroke-miterlimit:4;stroke-dasharray:none;stroke-opacity:1"
               d="m 173.53164,261.53947 c 0,0 3.34598,0.73569 5.02717,0.59211 1.70094,-0.14527 4.91099,-1.45289 4.91099,-1.45289"
               id="path4956"
               sodipodi:nodetypes="cac" />
            <path
               style="fill:none;stroke:#80caff;stroke-width:1.08747;stroke-linecap:round;stroke-linejoin:round;stroke-miterlimit:4;stroke-dasharray:none;stroke-opacity:1"
               d="m 180.70216,249.6594 c 0,0 4.42009,0.44457 6.42579,-0.31437 1.37325,-0.51963 3.43999,-2.75119 3.43999,-2.75119"
               id="path4958"
               sodipodi:nodetypes="cac" />
            <path
               style="fill:none;stroke:#80caff;stroke-width:1.08747;stroke-linecap:round;stroke-linejoin:round;stroke-miterlimit:4;stroke-dasharray:none;stroke-opacity:1"
               d="m 189.59541,238.42314 c 0,0 4.47189,1.38579 6.61875,0.81007 1.49636,-0.40128 3.71174,-2.79714 3.71174,-2.79714"
               id="path4960"
               sodipodi:nodetypes="cac" />
            <path
               style="fill:none;stroke:#80caff;stroke-width:1.08747;stroke-linecap:round;stroke-linejoin:round;stroke-miterlimit:4;stroke-dasharray:none;stroke-opacity:1"
               d="m 194.85252,227.94341 c 0,0 5.08865,1.05875 7.42756,0.24272 2.46698,-0.86072 5.9747,-5.07389 5.9747,-5.07389"
               id="path4962"
               sodipodi:nodetypes="cac" />
            <path
               style="fill:none;stroke:#80caff;stroke-width:1.08747;stroke-linecap:round;stroke-linejoin:round;stroke-miterlimit:4;stroke-dasharray:none;stroke-opacity:1"
               d="M 200.39018,217.77319 207.017,213.6292"
               id="path4964"
               sodipodi:nodetypes="cc" />
            <path
               style="fill:none;stroke:#80caff;stroke-width:1.08747;stroke-linecap:round;stroke-linejoin:round;stroke-miterlimit:4;stroke-dasharray:none;stroke-opacity:1"
               d="m 194.31949,225.36434 -2.31777,-8.58236"
               id="path4966"
               sodipodi:nodetypes="cc" />
            <path
               style="fill:none;stroke:#80caff;stroke-width:1.08747;stroke-linecap:round;stroke-linejoin:round;stroke-miterlimit:4;stroke-dasharray:none;stroke-opacity:1"
               d="m 188.83789,234.58406 c 0,0 -1.46301,-3.95871 -1.76718,-6.03155 -0.17188,-1.17132 -0.0227,-3.55152 -0.0227,-3.55152"
               id="path4968"
               sodipodi:nodetypes="cac" />
          </g>
          <g
             id="g4998"
             style="stroke:#80caff;stroke-width:1.08747;stroke-miterlimit:4;stroke-dasharray:none;stroke-opacity:1">
            <path
               style="fill:none;stroke:#80caff;stroke-width:1.08747;stroke-linecap:round;stroke-linejoin:round;stroke-miterlimit:4;stroke-dasharray:none;stroke-opacity:1"
               d="m 93.928115,363.54402 -0.723788,4.36178"
               id="path4972"
               sodipodi:nodetypes="cc" />
            <path
               style="fill:none;stroke:#80caff;stroke-width:1.08747;stroke-linecap:round;stroke-linejoin:round;stroke-miterlimit:4;stroke-dasharray:none;stroke-opacity:1"
               d="m 96.919377,358.2223 c 0,0 -3.708583,0.23756 -5.393017,0.93922 -0.971719,0.40477 -2.575755,1.82707 -2.575755,1.82707"
               id="path4974"
               sodipodi:nodetypes="cac" />
            <path
               style="fill:none;stroke:#80caff;stroke-width:1.08747;stroke-linecap:round;stroke-linejoin:round;stroke-miterlimit:4;stroke-dasharray:none;stroke-opacity:1"
               d="m 102.7132,354.75734 c 0,0 0.52447,2.54585 0.50412,3.83503 -0.0335,2.12102 -1.0281,6.28026 -1.0281,6.28026"
               id="path4976"
               sodipodi:nodetypes="cac" />
            <path
               style="fill:none;stroke:#80caff;stroke-width:1.08747;stroke-linecap:round;stroke-linejoin:round;stroke-miterlimit:4;stroke-dasharray:none;stroke-opacity:1"
               d="m 106.78279,350.04149 c 0,0 0.10109,2.77642 0.14799,4.16476 0.0455,1.34534 0.12927,4.03624 0.12927,4.03624"
               id="path4978"
               sodipodi:nodetypes="cac" />
            <path
               style="fill:none;stroke:#80caff;stroke-width:1.08747;stroke-linecap:round;stroke-linejoin:round;stroke-miterlimit:4;stroke-dasharray:none;stroke-opacity:1"
               d="m 111.01508,346.04848 c 0,0 1.07982,2.08387 1.20822,3.22447 0.17766,1.57826 -0.63805,4.72178 -0.63805,4.72178"
               id="path4980"
               sodipodi:nodetypes="cac" />
            <path
               style="fill:none;stroke:#80caff;stroke-width:1.08747;stroke-linecap:round;stroke-linejoin:round;stroke-miterlimit:4;stroke-dasharray:none;stroke-opacity:1"
               d="m 116.55488,341.20624 c 0,0 0.42461,2.38654 0.3898,3.5896 -0.0366,1.26596 -0.62792,3.74723 -0.62792,3.74723"
               id="path4982"
               sodipodi:nodetypes="cac" />
            <path
               style="fill:none;stroke:#80caff;stroke-width:1.08747;stroke-linecap:round;stroke-linejoin:round;stroke-miterlimit:4;stroke-dasharray:none;stroke-opacity:1"
               d="m 119.26615,338.12319 c 0,0 2.51286,0.87209 3.25017,1.88433 0.58517,0.80337 0.63226,2.91387 0.63226,2.91387"
               id="path4984"
               sodipodi:nodetypes="cac" />
            <path
               style="fill:none;stroke:#80caff;stroke-width:1.08747;stroke-linecap:round;stroke-linejoin:round;stroke-miterlimit:4;stroke-dasharray:none;stroke-opacity:1"
               d="m 142.48116,297.13209 c 0,0 2.46729,1.26582 3.29128,2.32714 1.06242,1.36843 1.85516,4.85493 1.85516,4.85493"
               id="path4986"
               sodipodi:nodetypes="cac" />
            <path
               style="fill:none;stroke:#80caff;stroke-width:1.08747;stroke-linecap:round;stroke-linejoin:round;stroke-miterlimit:4;stroke-dasharray:none;stroke-opacity:1"
               d="m 140.85691,307.72701 c 0,0 2.30127,2.73512 2.67605,4.41459 0.26088,1.16907 -0.37964,3.57335 -0.37964,3.57335"
               id="path4988"
               sodipodi:nodetypes="cac" />
            <path
               style="fill:none;stroke:#80caff;stroke-width:1.08747;stroke-linecap:round;stroke-linejoin:round;stroke-miterlimit:4;stroke-dasharray:none;stroke-opacity:1"
               d="m 136.40649,316.09989 c 0,0 0.80241,2.72225 0.8223,4.12376 0.026,1.83152 -0.92124,5.41733 -0.92124,5.41733"
               id="path4990"
               sodipodi:nodetypes="cac" />
            <path
               style="fill:none;stroke:#80caff;stroke-width:1.08747;stroke-linecap:round;stroke-linejoin:round;stroke-miterlimit:4;stroke-dasharray:none;stroke-opacity:1"
               d="m 130.17631,325.08987 c 0,0 0.90738,1.84844 1.2384,2.82039 0.5994,1.75998 1.34077,5.41421 1.34077,5.41421"
               id="path4992"
               sodipodi:nodetypes="cac" />
            <path
               style="fill:none;stroke:#80caff;stroke-width:1.08747;stroke-linecap:round;stroke-linejoin:round;stroke-miterlimit:4;stroke-dasharray:none;stroke-opacity:1"
               d="m 125.01373,332.06815 c 0,0 1.23698,2.11359 1.45911,3.29366 0.28054,1.4904 -0.20428,4.54512 -0.20428,4.54512"
               id="path4994"
               sodipodi:nodetypes="cac" />
            <path
               style="fill:none;stroke:#80caff;stroke-width:1.08747;stroke-linecap:round;stroke-linejoin:round;stroke-miterlimit:4;stroke-dasharray:none;stroke-opacity:1"
               d="m 103.11951,351.81315 c 0,0 -4.59011,0.12889 -6.80077,0.67956 -1.726525,0.43007 -4.939733,2.02279 -4.939733,2.02279"
               id="path4996"
               sodipodi:nodetypes="cac" />
          </g>
        </g>
      </g>
    </g>
  </g>
</svg>
